<svg id="Grupo_125324" data-name="Grupo 125324" xmlns="http://www.w3.org/2000/svg" xmlns:xlink="http://www.w3.org/1999/xlink" width="118.471" height="88" viewBox="0 0 118.471 88">
  <defs>
    <clipPath id="clip-path">
      <rect id="Rect치ngulo_39377" data-name="Rect치ngulo 39377" width="118.471" height="88" fill="none"/>
    </clipPath>
  </defs>
  <g id="Grupo_125324-2" data-name="Grupo 125324" clip-path="url(#clip-path)">
    <path id="Trazado_175738" data-name="Trazado 175738" d="M0,86.356V84.968a3.105,3.105,0,0,1,3.142-1.645c4.277.071,8.555.026,12.833.026H17.43a14.471,14.471,0,0,1-3.579-9.259c-2.366,0-4.67.037-6.972-.01A6.625,6.625,0,0,1,1.1,70.83,17.978,17.978,0,0,1,0,68.307V5.829C1.214,1.456,4.318-.019,8.5,0,29.817.1,51.135.042,72.454.045c4.769,0,7.6,2.848,7.6,7.637q.005,7.113,0,14.226v1.276h1.427c5.744,0,11.488.039,17.232-.015a7.324,7.324,0,0,1,7.2,4.422q6.241,12.623,12.551,25.212v15.5A7.694,7.694,0,0,1,114.2,73.59c-.224.1-.345.62-.362.952a14.126,14.126,0,0,1-2.9,8.007c-.166.218-.3.463-.508.8,1.743,0,3.324.074,4.895-.022a3.033,3.033,0,0,1,3.138,1.642v1.388A3.193,3.193,0,0,1,115.324,88Q59.236,87.955,3.147,88A3.158,3.158,0,0,1,0,86.356M75.393,69.464c.017-.363.037-.588.037-.813q0-30.649,0-61.3c0-1.877-.907-2.68-2.955-2.68q-32.44,0-64.88,0c-2.191,0-2.964.79-2.964,3.018q0,20.992,0,41.983v1.278c2.28,0,4.4-.008,6.513,0,1.891.01,2.733.862,2.74,2.775.01,2.7.005,5.4,0,8.1,0,2.225-.775,3.006-2.975,3.01-2.067,0-4.135,0-6.279,0,0,.676,0,1.209,0,1.742.011,2.066.813,2.878,2.867,2.885s4.087-.032,6.129.019a1.316,1.316,0,0,0,1.447-.923c2.52-5.333,6.767-8.285,12.669-8.3s10.161,2.935,12.7,8.256a1.416,1.416,0,0,0,1.532.965q15.092-.033,30.185-.015ZM103.134,32.44c-.516-1.048-.973-1.89-1.351-2.766a2.87,2.87,0,0,0-2.98-1.882c-5.861.048-11.723.02-17.585.02h-1.1V69.461c2.128,0,4.2.03,6.272-.035.277-.009.64-.453.793-.776,2.455-5.214,6.546-8.185,12.291-8.384,5.906-.2,10.232,2.6,12.992,7.823.135.256.285.505.429.757l.393.044a10.16,10.16,0,0,0,.53-2.193c.058-3.239.025-6.479.025-9.718v-1.4h-1.421q-12.379,0-24.758,0c-2.207,0-2.973-.777-2.974-3.006q0-8.446,0-16.892c0-2.553.68-3.24,3.2-3.241h15.244M86.025,74.166H41.662a14.5,14.5,0,0,1-3.444,9.088H89.447c-2.582-3.8-3.045-5.03-3.422-9.088m3.292-23.255h22.961a4.066,4.066,0,0,0-.182-.578c-2.1-4.2-4.218-8.391-6.28-12.61-.312-.638-.728-.662-1.285-.661q-5.434.013-10.869,0h-4.3c-.021.3-.046.484-.046.668,0,4.351,0,8.7,0,13.176m-70.8,23.152a9.252,9.252,0,1,0,9.306-9.226,9.28,9.28,0,0,0-9.306,9.226m72.192.044a9.251,9.251,0,1,0,9.26-9.27,9.276,9.276,0,0,0-9.26,9.27M4.692,60.134H9.171v-4.5H4.692Z" transform="translate(0 0)"/>
    <path id="Trazado_175739" data-name="Trazado 175739" d="M85.764,79.936H82.526q-15.093,0-30.185.015a1.416,1.416,0,0,1-1.532-.965c-2.537-5.321-6.789-8.271-12.7-8.256S27.962,73.7,25.442,79.03A1.316,1.316,0,0,1,24,79.953c-2.042-.051-4.086-.012-6.129-.019S15.01,79.116,15,77.05c0-.533,0-1.066,0-1.742,2.144,0,4.212,0,6.279,0,2.2,0,2.972-.785,2.975-3.01,0-2.7.008-5.4,0-8.1-.007-1.913-.85-2.765-2.74-2.775-2.116-.011-4.233,0-6.513,0V60.146q0-20.992,0-41.983c0-2.228.773-3.017,2.965-3.018q32.44,0,64.88,0c2.048,0,2.954.8,2.955,2.68q.01,30.649,0,61.3c0,.225-.02.45-.038.813M59.682,24.4H54.83q-4.794,0-9.588,0a2.274,2.274,0,0,0-2.324,1.555,1.974,1.974,0,0,0,.7,2.47A3.852,3.852,0,0,0,45.647,29c7.624.039,15.249.025,22.873.025,1.848,0,3.7.017,5.545-.007a2.344,2.344,0,0,0,2.454-1.99c.217-1.468-.913-2.621-2.628-2.626-4.736-.012-9.473,0-14.209,0m4.565,13.884c3.195,0,6.389.007,9.584,0,1.66-.005,2.721-.935,2.706-2.335s-1.071-2.286-2.754-2.288q-9.526-.009-19.052,0c-1.662,0-2.719.933-2.7,2.335s1.062,2.283,2.751,2.288c3.156.008,6.312,0,9.468,0m-26.12-11.6A2.305,2.305,0,1,0,35.8,29.02a2.333,2.333,0,0,0,2.328-2.34" transform="translate(-10.371 -10.471)" fill="#fff636"/>
    <path id="Trazado_175740" data-name="Trazado 175740" d="M282.7,94.731H267.459c-2.523,0-3.2.688-3.2,3.241q0,8.446,0,16.892c0,2.229.768,3.005,2.974,3.006q12.379,0,24.758,0h1.421v1.4c0,3.239.033,6.48-.025,9.718a10.164,10.164,0,0,1-.53,2.193l-.393-.044c-.143-.252-.293-.5-.429-.757-2.76-5.219-7.086-8.027-12.992-7.823-5.745.2-9.835,3.17-12.291,8.383-.152.323-.516.767-.793.776-2.07.066-4.143.035-6.272.035V90.1h1.1c5.862,0,11.724.029,17.585-.02a2.87,2.87,0,0,1,2.98,1.882c.378.876.835,1.718,1.351,2.766" transform="translate(-179.568 -62.291)" fill="#ba68c8"/>
    <path id="Trazado_175741" data-name="Trazado 175741" d="M289.5,133.983c0-4.473,0-8.824,0-13.176,0-.184.025-.368.046-.668h4.3q5.434,0,10.869,0c.556,0,.973.023,1.285.661,2.061,4.219,4.183,8.408,6.28,12.609a4.077,4.077,0,0,1,.182.578Z" transform="translate(-200.184 -83.071)" fill="#fff"/>
    <path id="Trazado_175742" data-name="Trazado 175742" d="M60.009,219.384a9.252,9.252,0,1,1,9.254,9.28,9.275,9.275,0,0,1-9.254-9.28m13.875.04a4.624,4.624,0,1,0-4.637,4.612,4.64,4.64,0,0,0,4.637-4.612" transform="translate(-41.495 -145.321)" fill="#ba68c8"/>
    <path id="Trazado_175743" data-name="Trazado 175743" d="M294,219.429a9.251,9.251,0,1,1,9.3,9.236,9.268,9.268,0,0,1-9.3-9.236m13.875-.006a4.623,4.623,0,1,0-4.637,4.614,4.643,4.643,0,0,0,4.637-4.614" transform="translate(-203.299 -145.321)" fill="#ba68c8"/>
    <rect id="Rect치ngulo_39376" data-name="Rect치ngulo 39376" width="4.478" height="4.499" transform="translate(4.692 55.635)" fill="#fff"/>
    <path id="Trazado_175744" data-name="Trazado 175744" d="M121.881,45.141c4.736,0,9.473-.008,14.209,0,1.715,0,2.845,1.158,2.628,2.626a2.343,2.343,0,0,1-2.454,1.99c-1.848.024-3.7.007-5.545.007-7.624,0-15.249.015-22.873-.025a3.851,3.851,0,0,1-2.034-.575,1.974,1.974,0,0,1-.7-2.471,2.274,2.274,0,0,1,2.324-1.554q4.794-.006,9.588,0h4.852" transform="translate(-72.57 -31.212)"/>
    <path id="Trazado_175745" data-name="Trazado 175745" d="M147.243,79.77c-3.156,0-6.312.006-9.468,0-1.689,0-2.736-.887-2.751-2.288s1.041-2.332,2.7-2.335q9.526-.012,19.051,0c1.683,0,2.739.894,2.754,2.288s-1.046,2.329-2.706,2.335c-3.194.01-6.389,0-9.584,0" transform="translate(-93.367 -51.958)"/>
    <path id="Trazado_175746" data-name="Trazado 175746" d="M79.636,47.448a2.305,2.305,0,1,1-2.283-2.27,2.33,2.33,0,0,1,2.283,2.27" transform="translate(-51.879 -31.239)"/>
    <path id="Trazado_175747" data-name="Trazado 175747" d="M84.256,229.8a4.624,4.624,0,1,1-4.611-4.637,4.644,4.644,0,0,1,4.611,4.637" transform="translate(-51.867 -155.695)"/>
    <path id="Trazado_175748" data-name="Trazado 175748" d="M318.252,229.8a4.623,4.623,0,1,1-4.614-4.635,4.647,4.647,0,0,1,4.614,4.635" transform="translate(-213.671 -155.694)"/>
  </g>
</svg>
